<?xml version="1.0" encoding="UTF-8"?>
<!DOCTYPE svg PUBLIC "-//W3C//DTD SVG 1.1//EN" "http://www.w3.org/Graphics/SVG/1.1/DTD/svg11.dtd">
<!-- Creator: CorelDRAW 2017 -->
<svg xmlns="http://www.w3.org/2000/svg" xml:space="preserve" width="200px" height="200px" version="1.1" shape-rendering="geometricPrecision" text-rendering="geometricPrecision" image-rendering="optimizeQuality" fill-rule="evenodd" clip-rule="evenodd"
viewBox="0 0 200 200"
 xmlns:xlink="http://www.w3.org/1999/xlink">
 <g id="Layer_x0020_1">
  <metadata id="CorelCorpID_0Corel-Layer"/>
  <path fill="black" d="M135.803 156.888c1.203,-5.166 5.761,-11.325 5.761,-21.401 13.953,0.312 13.496,20.971 -5.761,21.401zm-35.209 3.198c-5.93,-0.025 -8.534,-2.818 -10.859,-8.967 -1.815,-4.798 -1.766,-11.23 4.44,-12.695 8.504,-2.008 18.511,18.4 6.772,21.299 -3.741,-8.858 0.929,-15.797 -7.32,-19.646l2.613 4.543c0.95,2.247 0.702,3.083 0.691,5.661 -0.027,6.652 0.997,6.023 3.663,9.805zm-19.935 20.67l36.214 0c2.533,0 4.804,-3.711 6.088,-5.435l8.726 -11.849c7.974,1.909 15.48,-0.595 19.976,-4.717 17.761,-16.285 2.459,-30.674 -9.276,-30.674 -1.25,-2.362 -3.357,-6.584 -6.584,-6.584l-73.251 0c-9.722,0 -6.657,13.311 -6.581,14.811 0.621,12.369 5.534,24.447 12.001,34.089 2.538,3.783 9.876,10.359 12.687,10.359z"/>
  <path fill="#050505" d="M125.104 66.353l0 0.822 -0.961 -0.685 0.961 -0.137zm0.822 -0.824l-0.822 0.824 0.822 -0.824zm0.823 -0.823l-0.823 0.823 0.823 -0.823zm0.824 -0.823l-0.824 0.823 0.824 -0.823zm0.823 -0.823l-0.823 0.823 0.823 -0.823zm0.822 -0.823l-0.822 0.823 0.822 -0.823zm0.823 -0.823l-0.823 0.823 0.823 -0.823zm0.823 -0.823l-0.823 0.823 0.823 -0.823zm0.823 -0.823l-0.823 0.823 0.823 -0.823zm0.823 -0.823l-0.823 0.823 0.823 -0.823zm0.824 -0.823l-0.824 0.823 0.824 -0.823zm0.823 -0.823l-0.823 0.823 0.823 -0.823zm0.823 -0.823l-0.823 0.823 0.823 -0.823zm0.823 -0.823l-0.823 0.823 0.823 -0.823zm0.823 -0.823l-0.823 0.823 0.823 -0.823zm0.823 -0.823l-0.823 0.823 0.823 -0.823zm0.823 -0.824l-0.823 0.824 0.823 -0.824zm0.823 -0.823l-0.823 0.823 0.823 -0.823zm1.646 -0.823l-1.646 0.823 1.646 -0.823zm0.823 -0.822l-0.823 0.822 0.823 -0.822zm0.823 -0.824l-0.823 0.824 0.823 -0.824zm0.824 -0.823l-0.824 0.823 0.824 -0.823zm0.822 -0.822l-0.822 0.822 0.822 -0.822zm-4.115 0l0 0.822 -0.96 -0.685 0.96 -0.137zm4.938 -0.824l-0.823 0.824 0.823 -0.824zm-4.938 0.824l0 -0.824 0.961 0.686 -0.961 0.138zm4.938 -0.824l0 -0.823 0.961 0.685 -0.961 0.138zm2.47 -1.645l0 0.822 -0.961 -0.685 0.961 -0.137zm0.823 -0.824l-0.823 0.824 0.823 -0.824zm-4.938 0l0.245 0.246c-0.017,-0.016 -0.328,-0.164 -0.245,-0.246zm-9.054 0c0,-1.914 1.338,-0.379 0.541,0 -0.01,0.005 -0.541,2.377 -0.541,0zm14.815 -0.822l-0.823 0.822 0.823 -0.822zm-1.646 -1.647l0 0.823 -0.961 -0.686 0.961 -0.137zm0 0l0 -0.823 0.96 0.686 -0.96 0.137zm3.293 -13.992c0,-1.913 1.337,-0.378 0.541,0 -0.011,0.005 -0.541,2.377 -0.541,0zm4.077 33.745l0 -0.823 -1.177 0c0,1.25 0.249,0.8 -1.255,0.8 -1.112,-0.644 -1.123,-0.111 -0.034,-0.8 -0.529,-1.547 0.019,-0.471 -1.285,-1.88 -1.026,-1.109 -0.119,0.127 -1.377,-1.232l5.164 0.597c1.943,-0.401 3.448,-0.921 5.058,-1.481 1.415,-0.492 1.329,-0.395 2.385,-0.907l1.074 -0.573c2.126,-1.331 0.076,0.008 1.36,-1.108 -3.382,-0.789 -4.989,-2.199 -8.23,-2.47 2.774,-3.785 7.381,1.55 14.22,-4.71 3.997,-3.659 0.814,-2.304 5.132,-4.745l4.038 -3.028c0.336,-3.412 1.032,1.665 -0.313,-0.742l-0.855 -0.766c5.558,-0.463 9.573,-4.559 12.949,-7.628 4.832,-4.39 7.627,-5.028 7.627,-12.952 -0.162,-0.257 -0.343,-0.563 -0.476,-0.779 -0.128,-0.209 -0.323,-0.522 -0.463,-0.75l-1.239 -2.003c-1.782,2.085 -10.358,6.927 -13.154,7.435l-1.129 1.111 -0.003 -0.072c0,1.864 0.421,1.312 -1.599,1.312l-1.733 1.038c-6.88,1.297 -11.99,7.51 -17.772,9.636l-1.938 1.877 -0.004 0.129 -1.83 1.72c-0.172,0.135 -1.21,0.629 -1.458,0.745l-0.45 0.004c-0.905,1.111 0.061,0.185 -1.484,1.583 -0.898,0.813 -0.111,0.126 -1.358,0.883l-0.823 0.003 -0.737 0.823 -1.732 1.545 -0.823 0.102 0.68 -0.824 1.325 -0.665c0,-1.617 0.411,-1.225 -1.182,-1.225 -1.13,-0.35 -1.222,0.162 0,-0.579l0.463 -0.823 2.006 -1.243 0.507 -0.403c0.818,-1.071 -0.788,-0.509 1.961,-1.517l0.034 -0.129c1.586,-1.822 -2.284,-1.312 1.498,-1.455l1.441 -0.148 1.966 -1.446 0.737 -0.243 1.369 -0.708 2.498 -1.546 2.483 -1.603c1.182,-1.668 8.178,-5.8 10.337,-6.79 3.877,-1.777 7.93,-4.389 11.063,-5.585l1.631 -1.009 1.647 -0.781 2.803 -1.559 0.867 -0.173 0.144 -1.646c-0.954,-0.576 0.151,-0.154 -1.719,-0.929 -0.002,-0.001 -1.79,-0.63 -1.841,-0.647 -5.254,-1.777 -6.411,-1.234 -9.972,0.602 -1.855,0.956 -5.393,0.635 -8.746,1.943l-5.775 2.376c-2.823,0.939 -6.49,4.174 -9.182,5.698 -9.283,5.257 -1.129,2.948 -7.704,5.565l-14.503 12.557c-0.11,0.131 -0.276,0.308 -0.385,0.438 -5.351,6.337 -2.129,1.29 -8.06,8.402l-4.892 4.986c-0.95,1.22 -0.785,1.588 -1.978,2.984 -1.703,1.994 -3.12,-0.074 -6.607,11.475 -1.22,4.04 -1.128,3.698 -1.128,8.748 -1.602,1.073 -2.055,1.59 -3.512,3.073 -2.32,2.364 -9.041,10.258 -9.658,12.565 5.666,-3.793 9.951,-9.911 14.816,-13.168 3.959,1.056 0.634,1.487 5.719,1.701 5.335,0.225 6.873,-0.802 11.827,-3.085 5.282,-2.434 10.027,-3.314 16.132,-9.383 4.081,-4.058 3.819,-1.33 6.614,-5.695z"/>
  <path fill="#A57E27" d="M0 188.164l38.683 0 0 -4.939c-8.981,0 -10.886,0.841 -14.798,0.84 -5.218,-0.001 -10.436,-0.016 -15.654,-0.016l20.019 -35.125c1.175,-2.25 1.921,-3.05 3.026,-5.205l11.512 -19.763c8.016,-13.758 20.954,-38.118 28.648,-50.366 2.238,-3.561 3.868,-6.833 6.099,-10.361l11.354 -19.922c1.681,-3.278 9.414,-17.79 12.346,-19.753 0.578,2.483 0.616,2.095 1.808,3.953l14.653 25.676c2.184,-1.048 0.88,-0.75 4.115,-0.823 -0.449,-5.393 -19.162,-31.792 -20.576,-37.86l-1.647 0c-0.777,3.339 -24.699,43.349 -27.699,48.843 -1.044,1.911 -1.877,3.18 -3.082,5.149l-40.803 70.309c-1.196,2.023 -2.254,3.677 -3.312,5.74 -1.786,3.483 -3.951,6.823 -6.033,10.43 -1.2,2.079 -2.023,3.263 -3.021,5.209 -1.147,2.237 -2.146,3.524 -3.293,5.762 -0.998,1.946 -1.821,3.13 -3.021,5.208 -2.234,3.871 -8.611,13.953 -9.324,17.014z"/>
  <path fill="black" d="M44.445 185.694c0,2.804 4.583,4.939 7.407,4.939l90.535 0c4.603,0 6.482,-2.794 6.585,-7.408l-104.527 0 0 2.469z"/>
  <path fill="#A57E27" d="M193.417 184.049l-38.685 0 0 4.115 45.269 0c-0.227,-2.729 -6.834,-13.199 -8.771,-16.744 -1.1,-2.014 -1.112,-1.536 -2.211,-3.55l-23.419 -40.781c-1.502,-2.376 -2.423,-4.245 -3.953,-6.744l-23.375 -40.824 -4.938 0 60.083 104.528z"/>
  <path fill="#FDFDFD" d="M100.594 160.086c-2.666,-3.782 -3.69,-3.153 -3.663,-9.805 0.011,-2.578 0.259,-3.414 -0.691,-5.661l-2.613 -4.543c8.249,3.849 3.579,10.788 7.32,19.646 11.739,-2.899 1.732,-23.307 -6.772,-21.299 -6.206,1.465 -6.255,7.897 -4.44,12.695 2.325,6.149 4.929,8.942 10.859,8.967z"/>
  <path fill="#030303" d="M95.473 109.973l0.823 0 -0.686 0.961 -0.137 -0.961zm0 0l-0.946 -1.604 0.946 1.604zm-3.292 -3.291c0,12.064 21.168,8.687 11.704,-5.943 -1.391,-2.149 -2.796,-3.043 -3.473,-5.58 -2.395,0.64 -1.98,0.702 -4.953,4.924 -0.86,1.223 -3.278,4.749 -3.278,6.599z"/>
  <path fill="#3E3E3E" d="M157.705 35.12l0 0zm3.904 -0.403l0 0zm0.168 -1.994l0 0zm2.498 -1.546l0 0zm2.483 -1.603l0 0zm12.623 -4.493l-0.905 -1.459c1.872,-0.068 0.238,-0.305 0.905,1.459zm1.733 -1.038l-1.007 -1.214c1.867,-0.098 0.221,-0.34 1.007,1.214zm2.731 -2.351l0 0zm4.313 -4.493l0 0zm1.631 -1.009l0 0zm1.647 -0.781l0 0zm3.67 -1.732c-0.674,1.022 -0.138,1.123 -0.867,0.173l-2.803 1.559 -1.647 0.781 -1.631 1.009c-3.133,1.196 -7.186,3.808 -11.063,5.585 -2.159,0.99 -9.155,5.122 -10.337,6.79l-2.483 1.603 -2.498 1.546 -1.369 0.708c-0.505,1.006 0.02,1.121 -0.737,0.243l-1.966 1.446 -1.441 0.148c-3.782,0.143 0.088,-0.367 -1.498,1.455l-0.034 0.129c-2.749,1.008 -1.143,0.446 -1.961,1.517 -0.107,0.482 0.814,1.515 -0.507,0.403l-2.006 1.243c0.465,1.063 0.674,0.823 -0.463,0.823l0 0.579c1.593,0 1.182,-0.392 1.182,1.225l-1.325 0.665 0.143 0.722 1.732 -1.545 0.737 -0.823 0.823 -0.003c1.247,-0.757 0.46,-0.07 1.358,-0.883 1.545,-1.398 0.579,-0.472 1.484,-1.583l0.45 -0.004c0.248,-0.116 1.286,-0.61 1.458,-0.745l1.83 -1.72 0.004 -0.129 1.938 -1.877c5.782,-2.126 10.892,-8.339 17.772,-9.636l1.733 -1.038c2.02,0 1.599,0.552 1.599,-1.312 -0.694,-1.784 -0.459,-0.757 0.003,0.072l1.129 -1.111c2.796,-0.508 11.372,-5.35 13.154,-7.435l1.239 2.003c0.14,0.228 0.335,0.541 0.463,0.75 0.133,0.216 0.314,0.522 0.476,0.779l0 -3.289 -3.927 -2.469 -0.144 1.646z"/>
  <path fill="#4D4D4D" d="M152.23 61.414l0.034 0.8c1.504,0 1.255,0.45 1.255,-0.8 0.055,-0.163 0.124,-0.601 0.153,-0.492 0.032,0.112 0.144,-0.412 0.188,-0.498 0.07,-0.139 0.827,-1.456 0.872,-1.525l-5.164 -0.597c1.258,1.359 0.351,0.123 1.377,1.232 1.304,1.409 0.756,0.333 1.285,1.88z"/>
  <polygon fill="#474747" points="154.696,62.237 156.379,62.237 156.379,60.591 154.696,61.414 "/>
 </g>
</svg>
